<svg width="15" height="16" viewBox="0 0 15 16" fill="none" xmlns="http://www.w3.org/2000/svg">
<rect width="15" height="16" fill="#F2F2F2"/>
<g id="MainFrame" clip-path="url(#clip0_0_1)">
<rect width="1920" height="1080" transform="translate(-359 -158)" fill="white" fill-opacity="0.1"/>
<g id="Dashboard">
<g id="Group 191">
<g id="Rectangle 173" filter="url(#filter0_d_0_1)">
<rect x="-26" y="-118" width="220" height="1040" fill="#222222"/>
</g>
</g>
<g id="Menu">
<g id="MenuGroup">
<g id="Policy">
<path id="Union" fill-rule="evenodd" clip-rule="evenodd" d="M7.5 0.5C3.35786 0.5 0 3.85786 0 8C0 12.1421 3.35786 15.5 7.5 15.5C11.6421 15.5 15 12.1421 15 8C15 3.85786 11.6421 0.5 7.5 0.5ZM6.02286 1.79701C6.49694 1.68453 6.99152 1.625 7.5 1.625C7.787 1.625 8.06957 1.64397 8.34653 1.68071L7.94531 3.03199C7.89549 3.19976 7.96835 3.37968 8.12087 3.46552L8.99095 3.95523C9.11973 4.0277 9.27906 4.0178 9.39787 3.92993L10.9354 2.79279C10.9736 2.7645 11.0055 2.72973 11.03 2.69071C11.9434 3.29925 12.6909 4.13725 13.1901 5.12237L10.5047 4.81005C10.4249 4.80076 10.3441 4.81739 10.2744 4.85748L8.72578 5.74822C8.56063 5.84321 8.49295 6.04694 8.56843 6.22186L9.50463 8.39144C9.55162 8.50034 9.64737 8.58059 9.76281 8.60784L11.398 8.99374L12.4535 12.0018C12.4544 12.0045 12.4554 12.0071 12.4563 12.0097C11.2876 13.4526 9.50151 14.375 7.5 14.375C3.97918 14.375 1.125 11.5208 1.125 8C1.125 7.58478 1.1647 7.17883 1.2405 6.78574L3.55139 7.73044L3.28125 9.38309C3.25588 9.53831 3.33006 9.69287 3.46703 9.77017L5.19838 10.7473L5.47108 12.588C5.47707 12.6284 5.48962 12.6676 5.50824 12.7039L6.13054 13.9193C6.19746 14.05 6.33452 14.1296 6.48122 14.123C6.62792 14.1164 6.75726 14.0248 6.81215 13.8886L8.65262 9.32162C8.69145 9.22525 8.68857 9.11708 8.64464 9.02292C8.60071 8.92875 8.51968 8.85704 8.42088 8.82487L6.69595 8.26332L5.97666 7.27556C5.90608 7.17863 5.79341 7.1213 5.67352 7.1213H4.31753L4.18172 5.31363L6.80264 4.4445C6.90439 4.41076 6.98683 4.33508 7.02915 4.23659C7.07147 4.1381 7.06961 4.0262 7.02405 3.92917L6.02286 1.79701Z" fill="white"/>
</g>
</g>
</g>
</g>
</g>
<defs>
<filter id="filter0_d_0_1" x="-52" y="-144" width="290" height="1110" filterUnits="userSpaceOnUse" color-interpolation-filters="sRGB">
<feFlood flood-opacity="0" result="BackgroundImageFix"/>
<feColorMatrix in="SourceAlpha" type="matrix" values="0 0 0 0 0 0 0 0 0 0 0 0 0 0 0 0 0 0 127 0" result="hardAlpha"/>
<feOffset dx="9" dy="9"/>
<feGaussianBlur stdDeviation="17.5"/>
<feColorMatrix type="matrix" values="0 0 0 0 0 0 0 0 0 0 0 0 0 0 0 0 0 0 0.09 0"/>
<feBlend mode="normal" in2="BackgroundImageFix" result="effect1_dropShadow_0_1"/>
<feBlend mode="normal" in="SourceGraphic" in2="effect1_dropShadow_0_1" result="shape"/>
</filter>
<clipPath id="clip0_0_1">
<rect width="1920" height="1080" fill="white" transform="translate(-359 -158)"/>
</clipPath>
</defs>
</svg>
